<svg viewBox="0 0 200 200" xmlns="http://www.w3.org/2000/svg">
  <defs>
    <!-- Gradient for the main circle -->
    <linearGradient id="mainGradient" x1="0%" y1="0%" x2="100%" y2="100%">
      <stop offset="0%" style="stop-color:#8B5CF6;stop-opacity:1" />
      <stop offset="50%" style="stop-color:#692782;stop-opacity:1" />
      <stop offset="100%" style="stop-color:#4C1D95;stop-opacity:1" />
    </linearGradient>
    
    <!-- Gradient for the screen -->
    <linearGradient id="screenGradient" x1="0%" y1="0%" x2="100%" y2="100%">
      <stop offset="0%" style="stop-color:#F8FAFC;stop-opacity:1" />
      <stop offset="100%" style="stop-color:#E2E8F0;stop-opacity:1" />
    </linearGradient>
    
    <!-- Gradient for AI brain -->
    <radialGradient id="brainGradient" cx="50%" cy="50%" r="50%">
      <stop offset="0%" style="stop-color:#10B981;stop-opacity:1" />
      <stop offset="100%" style="stop-color:#059669;stop-opacity:1" />
    </radialGradient>
    
    <!-- Glow effect -->
    <filter id="glow">
      <feGaussianBlur stdDeviation="3" result="coloredBlur"/>
      <feMerge> 
        <feMergeNode in="coloredBlur"/>
        <feMergeNode in="SourceGraphic"/>
      </feMerge>
    </filter>
  </defs>
  
  <!-- Main background circle -->
  <circle cx="100" cy="100" r="95" fill="url(#mainGradient)" filter="url(#glow)"/>
  
  <!-- Computer screen -->
  <rect x="45" y="55" width="110" height="70" rx="8" fill="url(#screenGradient)" stroke="#1E293B" stroke-width="3"/>
  
  <!-- Screen content - multiple choice options -->
  <rect x="55" y="70" width="90" height="8" rx="2" fill="#CBD5E1"/>
  <rect x="55" y="85" width="75" height="6" rx="1" fill="#94A3B8"/>
  <rect x="55" y="95" width="85" height="6" rx="1" fill="#94A3B8"/>
  <rect x="55" y="105" width="80" height="6" rx="1" fill="#94A3B8"/>
  
  <!-- Answer options (A, B, C, D) -->
  <circle cx="58" cy="88" r="3" fill="#EF4444"/>
  <text x="58" y="91" text-anchor="middle" fill="white" font-family="Arial, sans-serif" font-size="5" font-weight="bold">A</text>
  
  <circle cx="58" cy="98" r="3" fill="#3B82F6"/>
  <text x="58" y="101" text-anchor="middle" fill="white" font-family="Arial, sans-serif" font-size="5" font-weight="bold">B</text>
  
  <circle cx="58" cy="108" r="3" fill="#10B981"/>
  <text x="58" y="111" text-anchor="middle" fill="white" font-family="Arial, sans-serif" font-size="5" font-weight="bold">C</text>
  
  <!-- Highlighted correct answer -->
  <rect x="52" y="93" width="90" height="10" rx="2" fill="#10B981" opacity="0.3"/>
  
  <!-- AI Brain/Circuit -->
  <circle cx="135" cy="45" r="18" fill="url(#brainGradient)" opacity="0.9"/>
  
  <!-- Neural network connections -->
  <path d="M125 35 L130 40 L140 38 L145 42" stroke="#FFFFFF" stroke-width="2" fill="none" opacity="0.8"/>
  <path d="M128 45 L135 48 L142 45 L148 50" stroke="#FFFFFF" stroke-width="2" fill="none" opacity="0.8"/>
  <path d="M125 52 L132 50 L140 53 L145 48" stroke="#FFFFFF" stroke-width="2" fill="none" opacity="0.8"/>
  
  <!-- Neural nodes -->
  <circle cx="127" cy="38" r="2" fill="#FFFFFF"/>
  <circle cx="140" cy="40" r="2" fill="#FFFFFF"/>
  <circle cx="145" cy="45" r="2" fill="#FFFFFF"/>
  <circle cx="132" cy="52" r="2" fill="#FFFFFF"/>
  
  <!-- Scanning lines effect -->
  <rect x="45" y="75" width="110" height="2" fill="#10B981" opacity="0.6">
    <animate attributeName="y" values="55;125;55" dur="3s" repeatCount="indefinite"/>
    <animate attributeName="opacity" values="0;0.8;0" dur="3s" repeatCount="indefinite"/>
  </rect>
  
  <!-- Target/crosshair for precision -->
  <g transform="translate(170, 85)">
    <circle cx="0" cy="0" r="12" fill="none" stroke="#10B981" stroke-width="2" opacity="0.7"/>
    <line x1="-8" y1="0" x2="8" y2="0" stroke="#10B981" stroke-width="2" opacity="0.7"/>
    <line x1="0" y1="-8" x2="0" y2="8" stroke="#10B981" stroke-width="2" opacity="0.7"/>
    <circle cx="0" cy="0" r="2" fill="#10B981" opacity="0.7"/>
  </g>
  
  <!-- Clock/timer indicator -->
  <g transform="translate(30, 85)">
    <circle cx="0" cy="0" r="10" fill="#1E293B" opacity="0.8"/>
    <circle cx="0" cy="0" r="8" fill="#FFFFFF"/>
    <line x1="0" y1="0" x2="0" y2="-5" stroke="#1E293B" stroke-width="1.5"/>
    <line x1="0" y1="0" x2="3" y2="0" stroke="#1E293B" stroke-width="1"/>
    <text x="0" y="18" text-anchor="middle" fill="#FFFFFF" font-family="Arial, sans-serif" font-size="8" font-weight="bold">12s</text>
  </g>
  
  <!-- Connecting lines showing AI analysis -->
  <path d="M120 45 Q130 50 120 70" stroke="#10B981" stroke-width="2" fill="none" opacity="0.6" stroke-dasharray="3,2">
    <animate attributeName="stroke-dashoffset" values="0;10" dur="2s" repeatCount="indefinite"/>
  </path>
</svg>